<svg width="61" height="57" viewBox="0 0 61 57" fill="none" xmlns="http://www.w3.org/2000/svg">
<rect width="61" height="57" rx="10" fill="white"/>
<path d="M31.6424 16.4414C31.4484 18.8433 31.5621 21.2605 31.8892 23.6497C33.6726 36.6732 39.5932 25.2319 37.3185 14.1587" stroke="black" stroke-width="1.5" stroke-linecap="round" stroke-linejoin="round"/>
<path d="M39.7444 12.4521C41.8077 11.1372 55.9486 1.42746 56.9724 6.41237C58.0852 11.8288 46.7396 17.1837 43.8162 20.7417C37.3997 28.5509 38.7452 42.1571 42.3355 50.8968" stroke="black" stroke-width="1.5" stroke-linecap="round" stroke-linejoin="round"/>
<path d="M28.7618 24.3457C23.348 32.0703 19.8702 40.601 18.0269 49.575" stroke="black" stroke-width="1.5" stroke-linecap="round" stroke-linejoin="round"/>
<path d="M28.5156 39.3625C30.9864 37.164 37.2625 38.9185 35.7957 42.7266C34.8478 45.1873 32.2356 47.6528 30.2431 49.3342C29.5347 49.9319 28.6587 50.5518 27.7752 50.8961C27.5693 50.9762 27.0016 50.9839 27.1581 51.1363C27.5133 51.4819 36.3315 48.8981 36.7828 50.6558C36.988 51.4551 30.3094 53.3819 29.5026 53.5392C25.309 54.3557 20.3093 54.2195 16.67 51.8571C15.8619 51.3327 15.6029 50.1233 14.9423 49.6948C14.8609 49.6419 7.93222 54.1533 4.82422 52.3378" stroke="black" stroke-width="1.5" stroke-linecap="round" stroke-linejoin="round"/>
<path d="M41.5026 13.6548C41.6171 14.0074 41.9076 14.2814 42.1467 14.5607" stroke="black" stroke-width="1.5" stroke-linecap="round" stroke-linejoin="round"/>
<path d="M55.6079 6.27131C60.084 5.71233 51.8102 9.87276 55.3095 6.46499" stroke="black" stroke-width="1.5" stroke-linecap="round" stroke-linejoin="round"/>
<path d="M40.3949 31.314C33.4631 32.247 31.2742 31.2434 29.0852 22.7305C22.5446 31.3888 16.6002 35.7887 3 35.3736C6.95343 37.566 7.05427 39.1697 3 42.767C6.39703 44.0935 5.78476 44.8373 3 46.1639C6.04333 46.7415 7.05834 47.6827 7.97443 50.1604C9.629 48.4469 10.5573 48.5193 12.2119 50.1604C20.5193 41.0867 27.3065 36.4432 40.3949 31.314Z" fill="#FFB915" stroke="black" stroke-width="1.5"/>
</svg>
